<svg width="88" height="88" viewBox="0 0 88 88" fill="none" xmlns="http://www.w3.org/2000/svg">
<path d="M75.7811 37.4111C76.2089 34.5413 76.0687 31.6032 75.3603 28.7783C74.4246 25.0464 72.4974 21.5122 69.579 18.5938C66.6606 15.6754 63.1264 13.7484 59.3947 12.8126C56.5697 12.1043 53.6315 11.964 50.7617 12.3917" stroke="white" stroke-width="3" stroke-linecap="round" stroke-linejoin="round"/>
<path d="M62.936 36.052C63.3942 32.9778 62.4401 29.7336 60.0736 27.3671C57.7069 25.0006 54.4629 24.0463 51.3887 24.5046" stroke="white" stroke-width="3" stroke-linecap="round" stroke-linejoin="round"/>
<path d="M29.4054 17.4209C30.6349 17.4209 31.7677 18.0878 32.3646 19.1627L36.5047 26.6204C37.0467 27.5969 37.0723 28.7779 36.5727 29.7769L32.5843 37.7538C32.5843 37.7538 33.7401 43.6963 38.5774 48.5336C43.4149 53.3709 49.3373 54.5068 49.3373 54.5068L57.3129 50.519C58.3126 50.0191 59.4945 50.045 60.4713 50.5881L67.9501 54.7461C69.0242 55.3431 69.6901 56.4754 69.6901 57.7042V66.2901C69.6901 70.6625 65.6288 73.8206 61.4858 72.4225C52.9771 69.5515 39.7691 64.085 31.3976 55.7134C23.0259 47.3419 17.5594 34.1339 14.6884 25.6252C13.2905 21.4822 16.4485 17.4209 20.8209 17.4209H29.4054Z" stroke="white" stroke-width="3" stroke-linejoin="round"/>
</svg>
