<svg width="88" height="88" viewBox="0 0 88 88" fill="none" xmlns="http://www.w3.org/2000/svg">
<g clip-path="url(#clip0_768_23882)">
<path d="M88 0H0V88H88V0Z" fill="white" fill-opacity="0.01"/>
<path d="M80.6655 20.1665C80.6655 20.1665 80.6654 66.1141 80.6654 69.6665C80.6654 75.7416 64.2491 80.6665 43.9987 80.6665C23.7482 80.6665 7.33209 75.7416 7.33209 69.6665C7.33209 66.2607 7.33203 20.1665 7.33203 20.1665" stroke="white" stroke-width="3" stroke-linecap="round" stroke-linejoin="round"/>
<path d="M80.6654 53.1665C80.6654 59.2416 64.2491 64.1665 43.9987 64.1665C23.7482 64.1665 7.33203 59.2416 7.33203 53.1665" stroke="white" stroke-width="3" stroke-linecap="round" stroke-linejoin="round"/>
<path d="M80.6654 36.6665C80.6654 42.7416 64.2491 47.6665 43.9987 47.6665C23.7482 47.6665 7.33203 42.7416 7.33203 36.6665" stroke="white" stroke-width="3" stroke-linecap="round" stroke-linejoin="round"/>
<path d="M43.9987 29.3335C64.2491 29.3335 80.6654 24.4086 80.6654 18.3335C80.6654 12.2584 64.2491 7.3335 43.9987 7.3335C23.7483 7.3335 7.33203 12.2584 7.33203 18.3335C7.33203 24.4086 23.7483 29.3335 43.9987 29.3335Z" stroke="white" stroke-width="3" stroke-linecap="round" stroke-linejoin="round"/>
</g>
<defs>
<clipPath id="clip0_768_23882">
<rect width="88" height="88" fill="white"/>
</clipPath>
</defs>
</svg>
